<?xml version="1.0" encoding="UTF-8"?>
<svg width="59px" height="42px" viewBox="0 0 59 42" version="1.1" xmlns="http://www.w3.org/2000/svg" xmlns:xlink="http://www.w3.org/1999/xlink">
    <title>Group</title>
    <g id="Page-1" stroke="none" stroke-width="1" fill="none" fill-rule="evenodd">
        <g id="Artboard" transform="translate(-7.000000, -15.000000)">
            <g id="Group" transform="translate(7.000000, 16.000000)">
                <g id="mammoth">
                    <g id="color" fill-rule="nonzero">
                        <path d="M57.7394979,40.3638317 L51.6378979,40.3638317 C51.1264159,40.3638317 50.6973471,39.9780027 50.6437979,39.4693316 C50.1085979,34.4234316 48.4337979,30.4165316 46.5714979,29.7242316 C45.7638979,29.4214316 44.8048979,29.7798316 43.7286979,30.7896316 C41.1495979,33.1148316 38.1847979,32.2183316 35.8038979,31.5005316 C34.2032979,31.0171316 32.8214979,30.5982316 32.0147979,31.2046316 C30.9190979,32.0246316 30.3839979,34.7671316 30.4229979,39.3546316 C30.4254527,39.6214385 30.3211805,39.8781623 30.1333774,40.0676932 C29.9455743,40.257224 29.6898162,40.3638317 29.4229979,40.3638317 L23.6554979,40.3638317 C23.3570457,40.3638317 23.0742303,40.23036 22.8843292,40.0001181 C22.694428,39.7698763 22.617292,39.4668472 22.6739979,39.1738316 C24.8995979,27.7158316 23.2657979,22.4413316 22.5782979,20.8720316 C20.2901979,21.2187316 19.7218979,21.5156316 17.3819979,23.0078316 C17.5449149,27.5048957 18.1017463,31.9790216 19.0460979,36.3788316 C19.1555595,36.8856719 18.8597327,37.3921711 18.3644979,37.5458316 L16.0978979,38.2470316 C15.6664466,38.3807189 15.1989401,38.2085853 14.9571979,37.8270316 C9.78929794,29.6688316 9.95039794,19.1561316 9.95919794,18.7118316 C9.95919794,13.2850316 14.1944979,8.61023155 17.9308979,4.48523155 C18.7032979,3.63273155 19.4630979,2.79383155 20.1708979,1.96573155 C20.2303479,1.89644834 20.2990215,1.8356482 20.3749979,1.78503155 C25.8649979,-1.89076845 29.4549979,0.816231551 31.9657979,3.58383155 C32.012934,3.63509356 32.0542213,3.69144007 32.0888979,3.75183155 C32.9788979,5.27523155 35.6942979,5.95393155 38.3202979,6.61023155 C41.0263979,7.28603155 43.8231979,7.98523155 45.3241979,9.73713155 C46.8938931,11.2301885 48.70163,12.4509719 50.6729979,13.3492316 C52.9269979,14.4820316 54.8517979,15.4497316 56.1886979,18.5679316 C56.1986979,18.5904316 56.2081979,18.6128316 56.2169979,18.6353316 C56.9046544,20.3940983 57.3647472,22.2335287 57.5860979,24.1089316 C57.6438046,24.4663237 57.5038447,24.8269969 57.2201711,25.0519159 C56.9364976,25.2768349 56.553413,25.3308731 56.2185919,25.1931993 C55.8837708,25.0555255 55.6495038,24.747641 55.6060979,24.3882316 C55.4829979,23.5200316 55.3460979,22.7476316 55.1948979,22.0572316 C54.3548979,27.5659316 57.8042979,37.2935316 58.6304979,38.9087316 C58.7884358,39.2188728 58.7739239,39.5887926 58.5921752,39.885608 C58.4104265,40.1824234 58.087538,40.3638317 57.7394979,40.3638317 L57.7394979,40.3638317 Z" id="Path" fill="#6364FF"></path>
                        <path d="M37.5050979,40.3638317 L32.8800979,40.3638317 C32.6148326,40.3639909 32.3603862,40.2586852 32.1728152,40.0711142 C31.9852443,39.8835433 31.8799386,39.6290968 31.8800979,39.3638316 C31.8800979,37.3765316 30.2179979,33.5367316 29.5772979,32.2238316 C29.335245,31.7275961 29.5411631,31.1290907 30.0372979,30.8868316 C30.5333979,30.6437316 35.7296979,30.0268316 36.2325979,29.7980316 C36.4738758,29.6873878 36.7493165,29.6775359 36.9978826,29.7706591 C37.2464487,29.8637822 37.4476131,30.05219 37.5567979,30.2941316 C38.3849979,32.1141316 38.4923979,38.1593316 38.5051553,39.3527316 C38.5079557,39.6197971 38.4038618,39.8769085 38.2160148,40.0667655 C38.0281678,40.2566225 37.7721788,40.3634468 37.5050979,40.3634316 L37.5050979,40.3638317 Z" id="Path" fill="#563ACC"></path>
                        <path d="M48.5577979,40.3638317 L43.0509979,40.3638317 C42.7857326,40.3639909 42.5312862,40.2586852 42.3437152,40.0711142 C42.1561443,39.8835433 42.0508386,39.6290968 42.0509979,39.3638316 C42.0509979,36.7300316 41.4649979,30.6753316 41.4591979,30.6148316 C41.4059135,30.06529 41.8080791,29.5765496 42.3575979,29.5230316 C42.9239979,29.4761316 47.8546979,29.1343316 48.3995979,29.0474316 C48.9447295,28.9606439 49.4572154,29.3315754 49.5450979,29.8765316 C49.8255051,33.0590229 49.828851,36.2598609 49.5550979,39.4429316 C49.5138255,39.9630727 49.079574,40.3640576 48.5577979,40.3638317 L48.5577979,40.3638317 Z" id="Path" fill="#563ACC"></path>
                        <path d="M8.71019794,26.7290316 C6.48738137,26.8117804 4.3044754,26.1223654 2.53239794,24.7779316 C0.791791438,23.1957654 -0.134339706,20.9075598 0.0157979409,18.5601316 C-0.111528272,16.1070593 0.806052841,13.7148228 2.54119794,11.9761316 C5.42989794,9.23203155 9.69649794,9.41853155 9.87909794,9.42613155 C10.3929371,9.45238574 10.8029953,9.86425654 10.8269829,10.3782065 C10.8509705,10.8921565 10.4810579,11.3404309 9.97189794,11.4144316 C6.73084271,11.9398551 4.38543012,14.7923354 4.49629794,18.0738316 C4.50274671,18.8710673 4.81286939,19.6358601 5.36349794,20.2124316 C6.41667912,21.114347 7.78892445,21.5537135 9.17009794,21.4312316 C14.0089979,21.4312316 15.7000979,16.4820316 15.7700979,16.2712316 C15.902297,15.8703301 16.2720028,15.5956218 16.6939979,15.5847316 C17.1206982,15.5542691 17.5142614,15.8154258 17.6519979,16.2204316 C18.6040979,18.6697316 18.5493979,20.8113316 17.4898979,22.5857316 C15.4868979,25.9431316 10.6138979,26.5886316 10.4077979,26.6140316 C9.84561755,26.6948981 9.27814831,26.73334 8.71019794,26.7290316 Z" id="Path" fill="#D0CFCE"></path>
                    </g>
                    <g id="line" transform="translate(1.015698, 0.996736)">
                        <path d="M15.7045,15.5860956 C18.7551,23.4382956 9.2673,24.6245956 9.2673,24.6245956 C9.2673,24.6245956 0,26.1498956 0,17.5631956 C0,8.97649557 8.8126,9.42849557 8.8126,9.42849557" id="Path" stroke="#000000" stroke-width="2" stroke-linecap="round" stroke-linejoin="round"></path>
                        <path d="M23.8863,4.05999557 C24.3859829,3.56617773 25.0540983,3.27985274 25.7563,3.25859557 C26.8783,3.25859557 29.2673,5.60949557 29.2673,11.2729956 C29.2673,16.9364956 26.1761,13.8452956 26.1761,13.8452956 C26.1761,13.8452956 24.9934,17.5952956 22.0647,14.0652956 L20.5,14.0652956" id="Path" stroke="#000000" stroke-width="2" stroke-linecap="round" stroke-linejoin="round"></path>
                        <path d="M31.1477738,4.38550918 C30.7859067,15.7949606 31.0128392,22.0838227 31.8285714,23.2520956 C33.2799387,25.3307104 38.6364334,25.2825098 40.438761,25.2825098 C42.2410886,25.2825098 46.7493439,25.1154421 47.5419,23.2520956 C47.8275878,22.5804265 47.9491738,19.0341604 47.906658,12.6132973 L39.903511,7.47726226 L31.1477738,4.38550918 Z" id="blanket" fill="#2F0C7A"></path>
                        <path d="M9.9437,17.7363956 C9.9437,11.6113956 15.7981,6.43309557 19.9147,1.61879557 C24.5519,-1.48260443 27.5462,0.322195566 30.2102,3.25879557 C32.3131,6.86319557 40.8829,6.20409557 43.5769,9.42429557 C49.6653,15.3609956 53.9987,12.0737956 55.5801,23.2520956" id="Path" stroke="#000000" stroke-width="2" stroke-linecap="round" stroke-linejoin="round"></path>
                        <path d="M17.0524,35.5935956 L14.7861,36.2950956 C12.5993941,32.6346776 11.150635,28.5814815 10.5216,24.3642956" id="Path" stroke="#000000" stroke-width="2" stroke-linecap="round" stroke-linejoin="round"></path>
                        <path d="M53.0611,23.2518956 C53.1428,29.1985956 56.0373,37.0255956 56.7235,38.3670956 L50.6221,38.3670956 C49.9239,31.7857956 46.9487,24.4536956 42.0294,29.0629956 C36.4223,34.1175956 28.2583,20.7682956 28.4073,38.3670956 L22.6396,38.3670956 C25.5121,23.5850956 22.1207,18.7841956 22.1207,18.7841956" id="Path" stroke="#000000" stroke-width="2" stroke-linecap="round" stroke-linejoin="round"></path>
                        <path d="M29.4596,30.7893956 C29.4596,30.7893956 31.8643,35.7087956 31.8643,38.3670956 L36.4898,38.3670956" id="Path" stroke="#000000" stroke-width="2" stroke-linecap="round" stroke-linejoin="round"></path>
                        <path d="M41.4386,29.5216956 C41.4386,29.5216956 42.0353,35.6536956 42.0353,38.3670956 L47.5419,38.3670956" id="Path" stroke="#000000" stroke-width="2" stroke-linecap="round" stroke-linejoin="round"></path>
                    </g>
                </g>
                <g id="star" transform="translate(37.000000, 16.000000)">
                    <g id="color" fill="#FCEA2B" fill-rule="nonzero">
                        <polygon id="Path" points="3.49905123 0 2.41830569 1.97519762 0 2.29269268 1.75063252 3.82930845 1.3384035 6 3.5011069 4.97448513 5.66465366 5.99855128 5.25063252 3.82813285 7 2.29035335 4.58143077 1.97447326"></polygon>
                    </g>
                    <g id="line" stroke="#FCEA2B" stroke-linecap="round" stroke-linejoin="round" stroke-width="2">
                        <polygon id="Path" points="3.49905123 0 2.41830569 1.97519762 0 2.29269268 1.75063252 3.82930845 1.3384035 6 3.5011069 4.97448513 5.66465366 5.99855128 5.25063252 3.82813285 7 2.29035335 4.58143077 1.97447326"></polygon>
                    </g>
                </g>
            </g>
        </g>
    </g>
</svg>